
<?xml version="1.0" encoding="UTF-8"?>
<svg id="Layer_2" data-name="Layer 2" xmlns="http://www.w3.org/2000/svg" viewBox="0 0 146.29 33.09">
  <defs>
    <style>
      .cls-1 {
        fill: #dbd7d4;
      }

      .cls-1, .cls-2, .cls-3 {
        fill-rule: evenodd;
        stroke-width: 0px;
      }

      .cls-2 {
        fill: #dbd7d4;
      }

      .cls-3 {
        fill: #dbd7d4;
      }
    </style>
  </defs>
  <g id="Layer_1-2" data-name="Layer 1">
    <g id="Train_Booking" data-name="Train Booking">
      <g id="Train_Booking-Form_Login-Success" data-name="Train Booking-Form Login-Success">
        <g id="Logo-_-Normal-Text-Copy-2" data-name="Logo-/-Normal-Text-Copy-2">
          <g id="Icon-Blue-Copy">
            <path id="Path-7" class="cls-3" d="M133.3,8.11c5.76-3.66,12.99-4.37,12.99-4.37,0,0-7.67,8.72-9.55,12.75-.58,1.76.63,3.19.63,3.19,0,0-3.36-3.76-4.08-11.57Z"/>
            <path id="Path-7-Copy" class="cls-2" d="M135.79,6.73c-.84.4-1.68.86-2.49,1.38.36,3.97,1.41,6.9,2.36,8.81.5.89.98,1.64,1.35,2.17-.18-.36-.37-.85-.41-1.43-.49-1.87-.94-5.17-.8-10.93Z"/>
            <path id="Path-6" class="cls-3" d="M128.14,11.51s-.38-1.33-.51-1.72c-.35-1.03-.71-2.09-.71-3.88,0-2.46,4.19-5.09,6.75-5.91-.69,8.96.31,11.7,1.24,14.68,2.2,7.33,7.21,8.39,7.7,8.89-1.28-.28-.55.32-.55.32,0,0-2.04-1.42-6.15-2.58-4.11-1.16-7.32-1.34-9.28-2.45-1.51-1.13-1.56-2.06-2.28-2.68-2.36-2.04-8.3-2.9-8.3-2.9l5.11.83s.7,0,1.53-.3c.18-.02.75-.67,1.98-.26.51.17.36.35,1.82.76,1.84.52,1.64-2.79,1.64-2.79Z"/>
          </g>
          <path id="traveloka" class="cls-1" d="M2.04,26.98c0,5.24,3.99,5.86,6.01,5.86.62,0,1.05-.06,1.05-.06v-2.67s-.28.06-.71.06c-1.15,0-3.34-.4-3.34-3.53v-6.98h3.78v-2.42h-3.78v-4.53h-2.91v4.53H0v2.42h2.04v7.32ZM11.87,32.72h3v-6.42c0-.96.09-1.92.37-2.82.71-2.33,2.48-3.69,4.4-3.69.46,0,.87.09.87.09v-2.98s-.37-.06-.77-.06c-2.42,0-4.24,1.8-4.95,4.09h-.06s.06-.53.06-1.18v-2.73h-2.91v15.69ZM21.52,28.31c0,3.13,2.63,4.77,5.33,4.77,3.75,0,5.02-3.1,5.02-3.1h.06s-.06.53-.06,1.24v1.49h2.79v-9.92c0-3.97-2.23-6.14-6.19-6.14-3.59,0-5.85,1.86-5.85,1.86l1.24,2.2s1.95-1.52,4.37-1.52c1.98,0,3.44.87,3.44,3.44v.28h-.68c-2.63,0-9.44.22-9.44,5.4h0ZM24.55,28.16c0-2.82,4.09-2.98,6.35-2.98h.77v.5c0,2.33-1.64,4.99-4.18,4.99-1.95,0-2.94-1.24-2.94-2.51h0ZM42.24,32.72h3.47l5.79-15.69h-3.16l-3.81,10.6c-.31.87-.53,2.14-.56,2.14h-.06s-.22-1.27-.53-2.14l-3.81-10.6h-3.19l5.85,15.69ZM52.29,24.87c0,4.65,3.38,8.22,8.3,8.22,3.75,0,6.07-2.23,6.07-2.23l-1.24-2.2s-1.95,1.83-4.64,1.83-5.23-1.74-5.39-5.18h11.43s.09-.9.09-1.3c0-4.06-2.35-7.35-6.78-7.35s-7.83,3.22-7.83,8.22h0ZM55.48,23.04c.43-2.57,2.29-4,4.58-4,2.01,0,3.68,1.3,3.78,4h-8.36ZM69.68,28.44c0,3.94,2.51,4.4,4.21,4.4.53,0,.99-.06.99-.06v-2.67s-.25.03-.53.03c-.93,0-1.67-.34-1.67-2.23V10.83h-3v17.61ZM76.23,24.84c0,4.77,3.78,8.25,8.45,8.25s8.45-3.47,8.45-8.25-3.78-8.19-8.45-8.19-8.45,3.44-8.45,8.19h0ZM79.3,24.84c0-3.26,2.45-5.58,5.39-5.58s5.39,2.33,5.39,5.58-2.42,5.64-5.39,5.64-5.39-2.36-5.39-5.64h0ZM96.09,32.72h3v-7.38h2.26l4.71,7.38h3.5l-5.79-8.71v-.06l5.2-6.91h-3.41l-4.27,5.77h-2.2v-11.97h-3v21.89ZM110.42,28.31c0,3.13,2.63,4.77,5.33,4.77,3.75,0,5.02-3.1,5.02-3.1h.06s-.06.53-.06,1.24v1.49h2.79v-9.92c0-3.97-2.23-6.14-6.19-6.14-3.59,0-5.85,1.86-5.85,1.86l1.24,2.2s1.95-1.52,4.37-1.52c1.98,0,3.44.87,3.44,3.44v.28h-.68c-2.63,0-9.44.22-9.44,5.4h0ZM113.45,28.16c0-2.82,4.09-2.98,6.35-2.98h.77v.5c0,2.33-1.64,4.99-4.18,4.99-1.95,0-2.94-1.24-2.94-2.51h0Z"/>
        </g>
      </g>
    </g>
  </g>
</svg>